<?xml version="1.0" encoding="iso-8859-1"?>
<!-- Generator: Adobe Illustrator 19.0.0, SVG Export Plug-In . SVG Version: 6.00 Build 0)  -->
<svg version="1.1" id="Capa_1" xmlns="http://www.w3.org/2000/svg" xmlns:xlink="http://www.w3.org/1999/xlink" x="0px" y="0px"
	 viewBox="0 0 416 416" style="enable-background:new 0 0 416 416;" xml:space="preserve">
<g>
	<g>
		<path d="M164.698,320c-27.2,0-48,20.8-48,48s20.8,48,48,48s48-20.8,48-48S191.898,320,164.698,320z M164.698,400
			c-17.6,0-32-14.4-32-32c0-17.6,14.4-32,32-32c17.6,0,32,14.4,32,32C196.698,385.6,182.298,400,164.698,400z"/>
	</g>
</g>
<g>
	<g>
		<path d="M324.698,320c-27.2,0-48,20.8-48,48s20.8,48,48,48s48-20.8,48-48S351.898,320,324.698,320z M324.698,400
			c-17.6,0-32-14.4-32-32c0-17.6,14.4-32,32-32c17.6,0,32,14.4,32,32C356.698,385.6,342.298,400,324.698,400z"/>
	</g>
</g>
<g>
	<g>
		<path d="M382.298,64h-273.6l-27.2-64h-64v16h52.8l86.4,208h-11.2c-17.6,0-32,14.4-32,32c0,17.6,14.4,32,32,32h224v-16h-224
			c-9.6,0-16-6.4-16-16c0-9.6,6.4-16,16-16h208c8,0,14.4-4.8,16-12.8l28.8-144C399.898,73.6,391.898,64,382.298,64z M353.498,224
			h-179.2l-60.8-144h268.8L353.498,224z"/>
	</g>
</g>
<g>
</g>
<g>
</g>
<g>
</g>
<g>
</g>
<g>
</g>
<g>
</g>
<g>
</g>
<g>
</g>
<g>
</g>
<g>
</g>
<g>
</g>
<g>
</g>
<g>
</g>
<g>
</g>
<g>
</g>
</svg>
