<?xml version="1.0" standalone="yes"?>
<svg xmlns="http://www.w3.org/2000/svg" width="621" height="402">
<path style="fill:#ffffff; stroke:none;" d="M0 0L0 402L621 402L621 0L0 0z"/>
<path style="fill:#3e3d3a; stroke:none;" d="M243 159L244 160L243 159z"/>
<path style="fill:#e5e1dc; stroke:none;" d="M564 164L564 171C565.06 168.466 565.06 166.534 564 164z"/>
<path style="fill:#685056; stroke:none;" d="M255 165L256 166L255 165z"/>
<path style="fill:#442f22; stroke:none;" d="M254 172L255 173L254 172z"/>
<path style="fill:#635041; stroke:none;" d="M234 181L235 182L234 181z"/>
<path style="fill:#faf8f3; stroke:none;" d="M293 187C299.665 184.176 306.884 185 314 185L350 185C345.785 183.231 340.536 184 336 184L307 184C302.259 184 295.854 182.598 293 187z"/>
<path style="fill:#f0e3ce; stroke:none;" d="M349.333 185.667C349.278 185.722 349.222 186.778 349.667 186.333C349.722 186.278 349.778 185.222 349.333 185.667z"/>
<path style="fill:#c7a04c; stroke:none;" d="M449 185L450 186L449 185z"/>
<path style="fill:#bb923c; stroke:none;" d="M245 189L246 190L245 189z"/>
<path style="fill:#bf9232; stroke:none;" d="M125 191L126 192L125 191z"/>
<path style="fill:#cc9e34; stroke:none;" d="M79 192L80 193L79 192z"/>
<path style="fill:#c5952d; stroke:none;" d="M391 192L392 193L391 192z"/>
<path style="fill:#b68a20; stroke:none;" d="M225 195L226 196L225 195z"/>
<path style="fill:#b28424; stroke:none;" d="M242 195L243 196L242 195z"/>
<path style="fill:#bc8b1d; stroke:none;" d="M179 196L180 197L179 196z"/>
<path style="fill:#a77715; stroke:none;" d="M122 198L123 199L122 198z"/>
<path style="fill:#a47814; stroke:none;" d="M75 200L76 201L75 200z"/>
<path style="fill:#d8cebd; stroke:none;" d="M125 210L126 211L125 210z"/>
<path style="fill:#8c6923; stroke:none;" d="M69 212L70 213L69 212z"/>
<path style="fill:#8f6c36; stroke:none;" d="M203 212L204 213L203 212z"/>
<path style="fill:#8e6f32; stroke:none;" d="M114 213L115 214L114 213z"/>
<path style="fill:#f4f0ec; stroke:none;" d="M276 219C284.118 222.407 297.203 220 306 220L374 220C365.882 216.593 352.797 219 344 219L276 219z"/>
<path style="fill:#706767; stroke:none;" d="M47 315L48 316L47 315z"/>
<path style="fill:#6d6162; stroke:none;" d="M48 317L49 318L48 317z"/>
<path style="fill:#6c6163; stroke:none;" d="M49 318L50 319L49 318z"/>
<path style="fill:#64595d; stroke:none;" d="M51 320L52 321L51 320z"/>
<path style="fill:#524043; stroke:none;" d="M54 324L55 325L54 324z"/>
<path style="fill:#4d3c3f; stroke:none;" d="M55 325L56 326L55 325z"/>
</svg>
