<?xml version="1.0" standalone="yes"?>
<svg xmlns="http://www.w3.org/2000/svg" width="606" height="124">
<path style="fill:#ffffff; stroke:none;" d="M0 0L0 124L606 124L606 0L0 0z"/>
<path style="fill:#3e3d3a; stroke:none;" d="M228 7L229 8L228 7z"/>
<path style="fill:#685056; stroke:none;" d="M240 13L241 14L240 13z"/>
<path style="fill:#442f22; stroke:none;" d="M239 20L240 21L239 20z"/>
<path style="fill:#635041; stroke:none;" d="M219 29L220 30L219 29z"/>
<path style="fill:#faf8f3; stroke:none;" d="M278 35C284.665 32.176 291.884 33 299 33L335 33C330.785 31.2312 325.536 32 321 32L292 32C287.259 32 280.854 30.5979 278 35z"/>
<path style="fill:#f0e3ce; stroke:none;" d="M334.333 33.6667C334.278 33.7221 334.222 34.7778 334.667 34.3333C334.722 34.2777 334.778 33.2222 334.333 33.6667z"/>
<path style="fill:#c7a04c; stroke:none;" d="M434 33L435 34L434 33z"/>
<path style="fill:#bb923c; stroke:none;" d="M230 37L231 38L230 37z"/>
<path style="fill:#bf9232; stroke:none;" d="M110 39L111 40L110 39z"/>
<path style="fill:#cc9e34; stroke:none;" d="M64 40L65 41L64 40z"/>
<path style="fill:#c5952d; stroke:none;" d="M376 40L377 41L376 40z"/>
<path style="fill:#b68a20; stroke:none;" d="M210 43L211 44L210 43z"/>
<path style="fill:#b28424; stroke:none;" d="M227 43L228 44L227 43z"/>
<path style="fill:#bc8b1d; stroke:none;" d="M164 44L165 45L164 44z"/>
<path style="fill:#a77715; stroke:none;" d="M107 46L108 47L107 46z"/>
<path style="fill:#a47814; stroke:none;" d="M60 48L61 49L60 48z"/>
<path style="fill:#d8cebd; stroke:none;" d="M110 58L111 59L110 58z"/>
<path style="fill:#8c6923; stroke:none;" d="M54 60L55 61L54 60z"/>
<path style="fill:#8f6c36; stroke:none;" d="M188 60L189 61L188 60z"/>
<path style="fill:#8e6f32; stroke:none;" d="M99 61L100 62L99 61z"/>
<path style="fill:#f4f0ec; stroke:none;" d="M261 67C269.118 70.4066 282.203 68 291 68L359 68C350.882 64.5934 337.797 67 329 67L261 67z"/>
</svg>
