<?xml version="1.0" standalone="yes"?>
<svg xmlns="http://www.w3.org/2000/svg" width="719" height="465">
<path style="fill:#ffffff; stroke:none;" d="M0 0L0 317L0 392L0 408C0 411.39 -0.720073 414.203 3 415C1.52148 415.986 1.79682 416 0 416L0 465L719 465L719 0L0 0z"/>
<path style="fill:#000000; stroke:none;" d="M113 182L111 190L109 190C109.59 192.949 107.806 194.388 106 198C103.217 203.566 100.783 209.434 98 215C96.8403 217.319 95.6284 219.964 94 222L93 221C92.3508 224.895 89.467 227.479 88 231C87.4918 232.22 89.0772 234.768 89 235C88.8815 235.355 86.5807 237.839 86 239C85.0891 240.822 84.889 243.222 84 245C82.0362 248.928 78.9566 252.087 77 256C75.0577 259.885 73.7875 264.516 71 268L70 267C69.975 272.214 66.9613 276.291 65 281L101 281C103.504 281 112.105 282.421 114 281C114.804 280.397 115.512 276.977 116 276C118.884 270.233 122.116 264.767 125 259C126.016 256.969 126.501 254.874 128 253L129 254C128.524 251.142 128.084 250.395 130 248L131 249C134.164 240.173 138.553 231.4 142.753 223C144.388 219.73 145.897 214.984 149.213 213.028C154.03 210.186 163.555 212 169 212L216 212C214.752 217.828 211.969 228.553 206.61 231.972C202.982 234.286 196.13 233 192 233C179.494 233 165.197 234.904 153 232C150.333 238.417 148.37 246.396 143 251C147.469 252.875 153.191 252 158 252L189 252C188.867 254.622 188.9 255.446 191 257L190 259C195.451 264.285 196.894 270.989 199 278C201.886 278 201.939 280.61 203.333 283C206.626 288.644 211.703 295.317 211 302C215.497 302 214.605 310.164 220 311C228.848 312.371 239.031 311 248 311L306 311L486 311L544 311C549.665 311 555.336 310.921 561 311C562.704 311.024 565.434 311.945 567 311.333C570.806 309.847 571.29 302.373 572 299L574 300C575.228 296.989 576.429 294.208 577 291L256 292C256.325 286.575 253.318 282.698 250.969 278C245.556 267.174 235.575 254.041 234 242C238.799 242 247.318 243.647 251.481 240.972C255.944 238.105 257.466 229.578 259.753 225C266.605 211.284 275.117 198.131 281 184C268.804 180.395 252.711 183 240 183L156 183C142.271 183 126.383 185.186 113 182z"/>
<path style="fill:#080808; stroke:none;" d="M114 182C118.469 183.875 124.191 183 129 183L158 183L239 183C252.424 183 267.913 180.884 281 184C278.281 180.888 272.89 182 269 182L239 182L114 182M303 183C308.357 184.287 315.382 183 321 183L362 183L437 183C448.769 183 461.356 184.28 473 183C468.531 181.125 462.809 182 458 182L427 182L343 182C330.581 182 314.917 179.477 303 183M482 189C483.913 187.198 485.595 184.606 488.104 183.603C491.818 182.117 497.069 183 501 183L529 183L652 183C649.578 187.15 647.333 191.373 646 196C649.746 192.293 652.078 187.172 653 182L523 182L498 182C494.448 182 489.542 181.157 486.214 182.603C483.527 183.771 482.767 186.447 482 189z"/>
<path style="fill:#1b1b1b; stroke:none;" d="M112 183L110 188C112.131 186.516 112.71 185.531 112 183z"/>
<path style="fill:#000000; stroke:none;" d="M303 184C303.208 185.661 303.495 185.54 302 186L303 188L301 188C300.74 191.742 298.084 194.268 298 198L296 198C295.348 204.417 288.99 209.43 289 216L287 216L288 218L286 218L287 220L285 220L286 222L284 222L285 224L283 224L284 226L282 226C281.801 228.106 281.544 228.543 280 230C280.513 233.076 279.347 236.066 277 239L276 238C276.191 245.329 269.681 249.351 269 256L267 256L268 258L266 258C265.584 264.783 259.776 275.275 255 280C259.487 282.688 264.923 282 270 282C281.248 282 295.199 284.193 306 281C304.852 274.112 312.892 265.698 316 260C317.097 257.99 317.849 253.29 320 252C321.461 251.124 326.239 252 328 252L350 252L414 252L430 252C431.812 252 435.36 252.703 437 252C438.973 251.154 436.312 250.328 439 251L444 236C449.31 234.88 449.144 228.274 451.129 224.001C456.114 213.266 464.644 204.197 466 192L468 193L472 184C465.701 182.138 458.537 183 452 183L417 183L342 183C329.494 183 315.197 181.096 303 184M437 282C441.986 280.338 448.365 281 454 281L485 281L571 281L597 281C601.006 281 604.873 279.718 606 280C608.255 273.463 610.755 268.072 614 262L496 262L496 258C501.3 259.767 498.732 252.836 501 250L502 251C501.954 248.195 502.39 245.738 503 243C504.915 244.277 504.085 244.277 506 243L505 239C507.979 238.404 506.733 237.433 509 238C510.754 232.007 512.948 226.581 515.753 221C516.944 218.631 518.052 215.52 520.39 214.028C523.224 212.22 527.801 213 531 213L554 213C582.158 213 611.023 214.715 639 212C640.924 207.38 644.038 203.074 644 198L646 198C646.326 192.69 649.976 187.861 652 183L532 183L500 183C496.017 183 489.922 181.882 486.376 184.024C482.088 186.613 480.865 191.743 479.13 196.001C477.178 200.79 474.567 205.38 472.247 210C468.158 218.143 463.192 225.734 459.262 234C456.944 238.874 455.459 244.054 452.892 248.83C447.161 259.493 440.22 270.227 437 282z"/>
<path style="fill:#1b1b1b; stroke:none;" d="M302.667 185.333C302.222 185.778 303.278 185.722 303.333 185.667C303.778 185.222 302.722 185.278 302.667 185.333z"/>
<path style="fill:#1c1c1c; stroke:none;" d="M301.667 187.333C301.222 187.778 302.278 187.722 302.333 187.667C302.778 187.222 301.722 187.278 301.667 187.333z"/>
<path style="fill:#1b1b1b; stroke:none;" d="M109.667 189.333C109.222 189.778 110.278 189.722 110.333 189.667C110.778 189.222 109.722 189.278 109.667 189.333z"/>
<path style="fill:#adadad; stroke:none;" d="M278 189L279 190L278 189z"/>
<path style="fill:#1a1a1a; stroke:none;" d="M300 189L299 194C300.366 192.369 301.142 190.962 302 189L300 189z"/>
<path style="fill:#101010; stroke:none;" d="M108 191C103.77 201.159 95.9399 211.117 94 222C100.884 213.692 105.853 200.961 110 191L108 191z"/>
<path style="fill:#111111; stroke:none;" d="M466 192L465 196C466.303 194.332 466.553 194.008 466 192z"/>
<path style="fill:#101010; stroke:none;" d="M480 192C475.177 200.264 470.678 209.166 467 218C472.37 214.482 474.96 205.648 477.752 200C479.084 197.307 480.494 194.968 480 192z"/>
<path style="fill:#494949; stroke:none;" d="M298 193L299 194L298 193z"/>
<path style="fill:#454545; stroke:none;" d="M297 195L298 196L297 195z"/>
<path style="fill:#282828; stroke:none;" d="M645.667 196.333C645.223 196.777 646.278 196.722 646.333 196.667C646.778 196.222 645.722 196.278 645.667 196.333z"/>
<path style="fill:#1a1a1a; stroke:none;" d="M296.667 197.333C296.222 197.778 297.278 197.722 297.333 197.667C297.778 197.222 296.722 197.278 296.667 197.333z"/>
<path style="fill:#232323; stroke:none;" d="M644.667 198.333C644.222 198.778 645.278 198.722 645.333 198.667C645.778 198.222 644.722 198.278 644.667 198.333z"/>
<path style="fill:#c5c7bf; stroke:none;" d="M273 199L274 200L273 199z"/>
<path style="fill:#19191a; stroke:none;" d="M295 199L295 202C296.015 200.861 296.309 200.388 297 199L295 199z"/>
<path style="fill:#383836; stroke:none;" d="M644 200L645 201L644 200z"/>
<path style="fill:#101010; stroke:none;" d="M271 201C266.237 212.44 258.434 223.079 255 235C261.142 228.922 264.411 218.699 268.247 211C269.863 207.756 271.99 204.611 271 201z"/>
<path style="fill:#6b6b69; stroke:none;" d="M272 201L273 202L272 201z"/>
<path style="fill:#4d4d4b; stroke:none;" d="M294 201L295 202L294 201z"/>
<path style="fill:#4f4f4f; stroke:none;" d="M643 202L644 203L643 202z"/>
<path style="fill:#494947; stroke:none;" d="M293 203L294 204L293 203z"/>
<path style="fill:#4b4b48; stroke:none;" d="M642 204L643 205L642 204z"/>
<path style="fill:#535350; stroke:none;" d="M292 205L293 206L292 205z"/>
<path style="fill:#6e6f68; stroke:none;" d="M641 206L642 207L641 206z"/>
<path style="fill:#1a1a1a; stroke:none;" d="M291 207L291 210C292.015 208.861 292.309 208.388 293 207L291 207z"/>
<path style="fill:#6f7069; stroke:none;" d="M640 208L641 209L640 208z"/>
<path style="fill:#535353; stroke:none;" d="M290 209L291 210L290 209z"/>
<path style="fill:#6c6c47; stroke:none;" d="M639 210L640 211L639 210z"/>
<path style="fill:#737373; stroke:none;" d="M289 211L290 212L289 211z"/>
<path style="fill:#080808; stroke:none;" d="M637 211C629.517 214.993 618.338 213 610 213L550 213L529 213C526.176 213 522.095 212.312 519.637 214.028C515.006 217.261 511.514 227.744 510 233C515.01 228.381 515.644 218.494 521.324 214.889C523.457 213.535 526.599 214.001 529 214L545 214L605 214L630 214C632.661 213.994 637.59 214.576 637 211M136 237C141.978 231.085 142.959 218.308 150.213 214.028C154.639 211.416 163.015 213 168 213C183.256 213 201.136 210.461 216 214C213.897 211.593 211.106 212.006 208 212L190 212L161 212C157.328 212 151.631 210.961 148.39 213.028C146.052 214.52 144.944 217.632 143.753 220C140.97 225.535 137.719 231.033 136 237z"/>
<path style="fill:#555556; stroke:none;" d="M288 213L289 214L288 213z"/>
<path style="fill:#080808; stroke:none;" d="M332 231L397 231C391.293 228.605 383.154 230 377 230L333 230C334.827 225.611 337.234 217.679 341.39 215.028C345.578 212.357 354.199 214 359 214L405 214C403.957 216.095 403.397 217.699 403 220C404.799 217.752 405.493 215.837 406 213L360 213C354.529 213 345.4 211.247 340.39 213.603C335.526 215.892 332.501 226.111 332 231z"/>
<path style="fill:#949487; stroke:none;" d="M457 213L458 214L457 213z"/>
<path style="fill:#ffffff; stroke:none;" d="M333 230L378 230C383.11 230 392.243 231.74 396.726 228.972C400.971 226.352 403.185 218.418 405 214L359 214C354.211 214 344.708 212.186 340.637 215.028C336.726 217.758 334.267 225.603 333 230z"/>
<path style="fill:#080808; stroke:none;" d="M215 215C212.344 219.55 210.147 228.078 205.61 230.972C201.982 233.286 195.13 232 191 232L154 232C157.959 233.661 162.74 233 167 233L193 233C196.948 233 202.962 234.112 206.61 232.397C210.777 230.436 215.714 219.285 215 215z"/>
<path style="fill:#1a1a1a; stroke:none;" d="M287.667 215.333C287.222 215.778 288.278 215.722 288.333 215.667C288.778 215.222 287.722 215.278 287.667 215.333z"/>
<path style="fill:#6b6b68; stroke:none;" d="M456 215L457 216L456 215z"/>
<path style="fill:#1a1a1a; stroke:none;" d="M286.667 217.333C286.222 217.778 287.278 217.722 287.333 217.667C287.778 217.222 286.722 217.278 286.667 217.333z"/>
<path style="fill:#101010; stroke:none;" d="M454 217C452.393 220.729 450.227 224.122 449 228C452.071 225.162 455.182 221.321 454 217z"/>
<path style="fill:#444444; stroke:none;" d="M455 217L456 218L455 217z"/>
<path style="fill:#1a1a1a; stroke:none;" d="M285.667 219.333C285.222 219.778 286.278 219.722 286.333 219.667C286.778 219.222 285.722 219.278 285.667 219.333z"/>
<path style="fill:#56574c; stroke:none;" d="M466 219L467 220L466 219z"/>
<path style="fill:#1a1a1a; stroke:none;" d="M284.667 221.333C284.222 221.778 285.278 221.722 285.333 221.667C285.778 221.222 284.722 221.278 284.667 221.333z"/>
<path style="fill:#6f725f; stroke:none;" d="M465 221L466 222L465 221z"/>
<path style="fill:#1a1a1a; stroke:none;" d="M283.667 223.333C283.222 223.778 284.278 223.722 284.333 223.667C284.778 223.222 283.722 223.278 283.667 223.333z"/>
<path style="fill:#b5b4ad; stroke:none;" d="M464 223L465 224L464 223z"/>
<path style="fill:#1b1b1b; stroke:none;" d="M282.667 225.333C282.222 225.778 283.278 225.722 283.333 225.667C283.778 225.222 282.722 225.278 282.667 225.333z"/>
<path style="fill:#d6d0cc; stroke:none;" d="M463 225L464 226L463 225z"/>
<path style="fill:#181818; stroke:none;" d="M281 227L281 230C282.015 228.861 282.309 228.388 283 227L281 227z"/>
<path style="fill:#1b1b1b; stroke:none;" d="M399 227C398.043 228.517 397.613 229.339 397 231C398.63 229.485 399.163 229.145 399 227z"/>
<path style="fill:#484848; stroke:none;" d="M280 229L281 230L280 229z"/>
<path style="fill:#111111; stroke:none;" d="M280 231C278.496 233.673 277.535 235.981 277 239C279.013 236.559 280.531 234.18 280 231z"/>
<path style="fill:#a58439; stroke:none;" d="M460 231L461 232L460 231z"/>
<path style="fill:#b8b26b; stroke:none;" d="M152.333 232.667C152.278 232.722 152.222 233.778 152.667 233.333C152.722 233.278 152.778 232.222 152.333 232.667z"/>
<path style="fill:#af8450; stroke:none;" d="M459 233L460 234L459 233z"/>
<path style="fill:#101010; stroke:none;" d="M87 234C82.3408 245.206 73.1345 256.026 71 268C78.6285 258.793 84.4042 245.039 89 234L87 234z"/>
<path style="fill:#d7c59b; stroke:none;" d="M151 234L152 235L151 234z"/>
<path style="fill:#a78b51; stroke:none;" d="M151 235L152 236L151 235z"/>
<path style="fill:#a78747; stroke:none;" d="M458 235L459 236L458 235z"/>
<path style="fill:#101010; stroke:none;" d="M444 236C442.61 239.342 441.004 242.516 440 246C442.742 243.284 445.074 239.917 444 236z"/>
<path style="fill:#7b6b39; stroke:none;" d="M150 237L151 238L150 237z"/>
<path style="fill:#a58143; stroke:none;" d="M457 237L458 238L457 237z"/>
<path style="fill:#111111; stroke:none;" d="M507 237L505 241C507.004 239.753 507.823 239.263 507 237z"/>
<path style="fill:#574d26; stroke:none;" d="M149 239L150 240L149 239z"/>
<path style="fill:#a37538; stroke:none;" d="M456 239L457 240L456 239z"/>
<path style="fill:#8e6920; stroke:none;" d="M148 240L149 241L148 240z"/>
<path style="fill:#181a1c; stroke:none;" d="M456.333 240.667C456.278 240.722 456.222 241.778 456.667 241.333C456.722 241.278 456.778 240.222 456.333 240.667z"/>
<path style="fill:#101211; stroke:none;" d="M148 241C146.61 244.342 145.004 247.516 144 251C146.743 248.284 149.074 244.917 148 241z"/>
<path style="fill:#101010; stroke:none;" d="M275 241L268 254C272.607 251.205 274.969 245.853 277 241L275 241z"/>
<path style="fill:#917024; stroke:none;" d="M455 241L456 242L455 241z"/>
<path style="fill:#151917; stroke:none;" d="M455.333 242.667C455.278 242.722 455.222 243.778 455.667 243.333C455.722 243.278 455.778 242.222 455.333 242.667z"/>
<path style="fill:#927533; stroke:none;" d="M454 243L455 244L454 243z"/>
<path style="fill:#101010; stroke:none;" d="M503 243L501 249C502.915 246.968 503.744 245.735 503 243z"/>
<path style="fill:#16171c; stroke:none;" d="M454.333 244.667C454.278 244.722 454.222 245.778 454.667 245.333C454.722 245.278 454.778 244.222 454.333 244.667z"/>
<path style="fill:#a3854a; stroke:none;" d="M453 245L454 246L453 245z"/>
<path style="fill:#18161c; stroke:none;" d="M453.333 246.667C453.278 246.722 453.222 247.778 453.667 247.333C453.722 247.278 453.778 246.222 453.333 246.667z"/>
<path style="fill:#a7935f; stroke:none;" d="M452 247L453 248L452 247z"/>
<path style="fill:#111111; stroke:none;" d="M129 248L128 252C129.303 250.332 129.553 250.008 129 248z"/>
<path style="fill:#191919; stroke:none;" d="M452 248L451 251C452.766 250.021 452.955 249.778 452 248z"/>
<path style="fill:#0b0b0b; stroke:none;" d="M437 250C431.098 254.472 418.228 252 411 252L342 252C347.792 254.797 357.562 253 364 253L415 253C420.666 253 426.335 253.053 432 253C434.529 252.976 438.226 253.252 437 250z"/>
<path style="fill:#111111; stroke:none;" d="M500 250L499 254C500.303 252.332 500.553 252.008 500 250z"/>
<path style="fill:#605e59; stroke:none;" d="M146 252C148.052 252.874 149.747 252.953 152 253C149.948 252.126 148.253 252.047 146 252z"/>
<path style="fill:#0b0b0b; stroke:none;" d="M152 252C155.699 253.552 160.017 253 164 253C172.209 253 180.976 252.09 189 254C186.418 251.045 181.707 252 178 252L152 252z"/>
<path style="fill:#9f9f9f; stroke:none;" d="M326 252L327 253L326 252z"/>
<path style="fill:#494949; stroke:none;" d="M327 252C331.471 253.876 337.183 253 342 253C337.529 251.124 331.817 252 327 252z"/>
<path style="fill:#4c4c4c; stroke:none;" d="M450 252L451 253L450 252z"/>
<path style="fill:#080808; stroke:none;" d="M127 253C124.299 259.489 120.899 265.715 117.753 272C116.435 274.632 115.208 278.315 112.61 279.972C109.174 282.164 102.903 281 99 281L65 281L71 270C66.6461 272.471 64.8548 277.205 64 282L100 282C103.943 282 110.973 283.339 114.363 280.972C118.17 278.314 120.228 271.039 122.247 267C124.305 262.884 128.279 257.666 127 253z"/>
<path style="fill:#bab7b9; stroke:none;" d="M449 254L450 255L449 254z"/>
<path style="fill:#4b4b4b; stroke:none;" d="M188 255L189 256L188 255z"/>
<path style="fill:#1a1a1a; stroke:none;" d="M267.667 255.333C267.222 255.778 268.278 255.722 268.333 255.667C268.778 255.222 267.722 255.278 267.667 255.333z"/>
<path style="fill:#c6c7c7; stroke:none;" d="M448 256L449 257L448 256z"/>
<path style="fill:#1b1b1b; stroke:none;" d="M189.667 257.333C189.222 257.778 190.278 257.722 190.333 257.667C190.778 257.222 189.722 257.278 189.667 257.333z"/>
<path style="fill:#1a1a1a; stroke:none;" d="M266.667 257.333C266.222 257.778 267.278 257.722 267.333 257.667C267.778 257.222 266.722 257.278 266.667 257.333z"/>
<path style="fill:#080808; stroke:none;" d="M496 258L496 262L567 262C562.031 259.915 555.35 261 550 261L516 261C509.537 261 501.002 262.775 496 258z"/>
<path style="fill:#101010; stroke:none;" d="M190 259C191.946 263.515 194.503 267.766 197 272C197.774 267.349 193.834 261.461 190 259z"/>
<path style="fill:#b9b9b9; stroke:none;" d="M241 259L242 260L241 259z"/>
<path style="fill:#191919; stroke:none;" d="M265 259L255 280C260.88 276.148 264.341 265.387 267 259L265 259z"/>
<path style="fill:#7e7e7b; stroke:none;" d="M315 260L316 261L315 260z"/>
<path style="fill:#888888; stroke:none;" d="M242 261L243 262L242 261z"/>
<path style="fill:#222220; stroke:none;" d="M567 261C571.724 262.982 577.91 262 583 262C578.276 260.018 572.09 261 567 261z"/>
<path style="fill:#121212; stroke:none;" d="M583 261C591.367 264.511 604.924 262 614 262C605.633 258.489 592.076 261 583 261z"/>
<path style="fill:#101010; stroke:none;" d="M313 262C310.476 268.062 306.823 273.673 305 280C308.787 276.253 314.488 267.425 313 262z"/>
<path style="fill:#3d3d3b; stroke:none;" d="M314 262L315 263L314 262z"/>
<path style="fill:#585858; stroke:none;" d="M243 263L244 264L243 263z"/>
<path style="fill:#a6a7a1; stroke:none;" d="M613 263L614 264L613 263z"/>
<path style="fill:#3a3a3a; stroke:none;" d="M244 265L245 266L244 265z"/>
<path style="fill:#101010; stroke:none;" d="M611 265C609.61 268.342 608.004 271.516 607 275C609.742 272.284 612.074 268.917 611 265z"/>
<path style="fill:#6b6b6b; stroke:none;" d="M612 265L613 266L612 265z"/>
<path style="fill:#e4cdb2; stroke:none;" d="M439 273L440 274L439 273z"/>
<path style="fill:#111111; stroke:none;" d="M200 277C201.418 284.856 206.982 293.117 211 300C212.091 293.45 204.126 281.929 200 277z"/>
<path style="fill:#373733; stroke:none;" d="M438 277L439 278L438 277z"/>
<path style="fill:#8a8a8a; stroke:none;" d="M606 278L607 279L606 278z"/>
<path style="fill:#d9c7a7; stroke:none;" d="M436 279L437 280L436 279z"/>
<path style="fill:#3b3835; stroke:none;" d="M437 279L438 280L437 279z"/>
<path style="fill:#080808; stroke:none;" d="M604 279C600.112 281.945 594.716 281 590 281L559 281L438 281C441.525 282.702 446.095 282 450 282L475 282L566 282L596 282C598.602 282 605.543 283.095 604 279z"/>
<path style="fill:#4b4638; stroke:none;" d="M256.667 281.333C256.222 281.778 257.278 281.722 257.333 281.667C257.778 281.222 256.722 281.278 256.667 281.333z"/>
<path style="fill:#a29681; stroke:none;" d="M436 281L437 282L436 281z"/>
<path style="fill:#080808; stroke:none;" d="M256 290C258.435 292.786 262.484 292 266 292L292 292L398 292C394.041 290.339 389.26 291 385 291L361 291L292 291C280.412 291 267.307 292.692 256 290z"/>
<path style="fill:#e2e2e2; stroke:none;" d="M397 290C399.052 290.874 400.747 290.953 403 291C400.948 290.126 399.253 290.047 397 290z"/>
<path style="fill:#080808; stroke:none;" d="M402 291C406.72 292.981 412.92 292 418 292L451 292L567 292C562.28 290.019 556.08 291 551 291L518 291L402 291z"/>
<path style="fill:#a18758; stroke:none;" d="M575 296L576 297L575 296z"/>
<path style="fill:#101010; stroke:none;" d="M572 299L570 305C571.915 302.968 572.744 301.735 572 299z"/>
<path style="fill:#080808; stroke:none;" d="M212 301C214.255 313.643 223.546 312 234 312L296 312L566 312C559.322 309.198 549.216 311 542 311L489 311L304 311L246 311C238.495 311 227.072 313.146 220.043 310.397C216.009 308.819 214.58 304.11 212 301z"/>
<path style="fill:#a47d46; stroke:none;" d="M570 306L571 307L570 306z"/>
<path style="fill:#4d4c46; stroke:none;" d="M567 311L568 312L567 311z"/>
<path style="fill:#585858; stroke:none;" d="M3 405L4 406L3 405z"/>
<path style="fill:#838383; stroke:none;" d="M2 406C3.24835 406.685 3.54842 406.749 5 407C3.75165 406.315 3.45158 406.251 2 406z"/>
<path style="fill:#acaab1; stroke:none;" d="M0 415C1.24834 415.685 1.54843 415.749 3 416C1.75166 415.315 1.45156 415.251 0 415z"/>
</svg>
