<svg height="511pt" viewBox="0 -31 511.99672 511" width="511pt" xmlns="http://www.w3.org/2000/svg"><path d="m497.335938 74.679688-435.234376-73.929688c-9.585937-1.625-18.6875 4.828125-20.3125 14.414062l-22.925781 134.972657 16.492188 114.804687c9.726562 0 17.609375 7.890625 17.609375 17.617188l423.726562 18.839844 35.050782-206.398438c1.636718-9.59375-4.816407-18.6875-14.40625-20.320312zm0 0" fill="#ed8a19"/><path d="m459.078125 450.285156h-441.46875c-9.726563 0-17.609375-7.890625-17.609375-17.621094v-264.914062c0-9.730469 7.882812-17.613281 17.609375-17.613281h441.46875c9.726563 0 17.613281 7.882812 17.613281 17.613281v264.914062c0 9.730469-7.886718 17.621094-17.613281 17.621094zm0 0" fill="#366db6"/><path d="m183.527344 309.042969h-119.878906c-10.78125 0-19.511719-8.738281-19.511719-19.507813v-66.914062c0-10.777344 8.742187-19.507813 19.511719-19.507813h119.878906c10.777344 0 19.507812 8.738281 19.507812 19.507813v66.914062c0 10.769532-8.738281 19.507813-19.507812 19.507813zm0 0" fill="#ebba16"/><path d="m70.621094 203.113281h17.65625v105.929688h-17.65625zm0 0" fill="#f7e6a1"/><path d="m79.449219 264.90625h123.585937v17.652344h-123.585937zm0 0" fill="#f7e6a1"/><path d="m79.449219 229.59375h123.585937v17.65625h-123.585937zm0 0" fill="#f7e6a1"/><path d="m97.101562 397.320312h-35.308593c-9.753907 0-17.65625-7.902343-17.65625-17.65625 0-9.753906 7.902343-17.65625 17.65625-17.65625h35.308593c9.757813 0 17.65625 7.902344 17.65625 17.65625 0 9.746094-7.898437 17.65625-17.65625 17.65625zm0 0" fill="#1f436d"/><path d="m203.035156 397.320312h-35.3125c-9.753906 0-17.652344-7.902343-17.652344-17.65625 0-9.753906 7.898438-17.65625 17.652344-17.65625h35.3125c9.753906 0 17.65625 7.902344 17.65625 17.65625 0 9.746094-7.902344 17.65625-17.65625 17.65625zm0 0" fill="#1f436d"/><path d="m121.316406 99.679688-34.789062-6.066407c-9.605469-1.675781-16.039063-10.820312-14.363282-20.425781 1.679688-9.605469 10.824219-16.039062 20.429688-14.363281l34.789062 6.066406c9.605469 1.675781 16.039063 10.820313 14.363282 20.425781-1.679688 9.605469-10.824219 16.039063-20.429688 14.363282zm0 0" fill="#f7b563"/><path d="m225.667969 117.863281-34.789063-6.0625c-9.605468-1.679687-16.039062-10.824219-14.363281-20.429687 1.679687-9.601563 10.824219-16.039063 20.429687-14.359375l34.789063 6.0625c9.601563 1.675781 16.039063 10.824219 14.359375 20.425781-1.675781 9.613281-10.8125 16.042969-20.425781 14.363281zm0 0" fill="#f7b563"/><g fill="#1f436d"><path d="m432.550781 317.871094h-114.757812c-4.871094 0-8.828125-3.953125-8.828125-8.828125 0-4.871094 3.957031-8.828125 8.828125-8.828125h114.757812c4.875 0 8.828125 3.957031 8.828125 8.828125 0 4.875-3.953125 8.828125-8.828125 8.828125zm0 0"/><path d="m282.484375 317.871094h-35.3125c-4.871094 0-8.828125-3.953125-8.828125-8.828125 0-4.871094 3.957031-8.828125 8.828125-8.828125h35.3125c4.871094 0 8.824219 3.957031 8.824219 8.828125 0 4.875-3.953125 8.828125-8.824219 8.828125zm0 0"/><path d="m247.171875 238.421875h185.378906v35.3125h-185.378906zm0 0"/><path d="m361.929688 211.941406h-114.757813c-4.871094 0-8.828125-3.957031-8.828125-8.828125 0-4.875 3.957031-8.828125 8.828125-8.828125h114.757813c4.875 0 8.828124 3.953125 8.828124 8.828125 0 4.871094-3.953124 8.828125-8.828124 8.828125zm0 0"/><path d="m432.550781 211.941406h-35.308593c-4.875 0-8.828126-3.957031-8.828126-8.828125 0-4.875 3.953126-8.828125 8.828126-8.828125h35.308593c4.875 0 8.828125 3.953125 8.828125 8.828125 0 4.871094-3.953125 8.828125-8.828125 8.828125zm0 0"/></g><path d="m397.242188 379.664062c0 19.5-15.808594 35.308594-35.3125 35.308594-19.5 0-35.308594-15.808594-35.308594-35.308594s15.808594-35.308593 35.308594-35.308593c19.503906 0 35.3125 15.808593 35.3125 35.308593zm0 0" fill="#ebba16"/><path d="m353.101562 379.664062c0 19.5-15.808593 35.308594-35.308593 35.308594s-35.308594-15.808594-35.308594-35.308594 15.808594-35.308593 35.308594-35.308593 35.308593 15.808593 35.308593 35.308593zm0 0" fill="#dd352e"/></svg>